<svg width="12" height="12" viewBox="0 0 12 12" fill="none" xmlns="http://www.w3.org/2000/svg">
<path opacity="0.6" d="M6 0C6.09 0 6.17954 0.00183494 6.26855 0.00585938C6.31396 0.00785948 6.35916 0.0116444 6.4043 0.0146484C6.45557 0.0181349 6.50671 0.0215976 6.55762 0.0263672C6.60207 0.0304644 6.64626 0.0359539 6.69043 0.0410156C6.73319 0.0459732 6.77587 0.0508051 6.81836 0.0566406C9.74484 0.455843 12 2.96394 12 6C12 9.31371 9.31371 12 6 12C2.68629 12 0 9.31371 0 6C0 3.02706 2.16237 0.560131 5 0.0839844C5.00749 0.0827272 5.01496 0.0813085 5.02246 0.0800781C5.07496 0.0714742 5.12771 0.0638723 5.18066 0.0566406C5.22315 0.0507986 5.26583 0.0459799 5.30859 0.0410156C5.35276 0.0359468 5.39695 0.0304715 5.44141 0.0263672C5.49232 0.0215895 5.54346 0.0181432 5.59473 0.0146484C5.63987 0.0116371 5.68506 0.00786675 5.73047 0.00585938C5.81981 0.0018058 5.90967 0 6 0ZM6 1C5.65756 1 5.32309 1.03403 5 1.09961V3H3V2C2.62134 2.28445 2.28445 2.62134 2 3H3V5H1.10059C1.03498 5.32314 1 5.6575 1 6C1 6.3425 1.03498 6.67686 1.10059 7H3V9H2C2.28433 9.3785 2.62153 9.71465 3 9.99902V9H5V10.8994C5.32314 10.965 5.6575 11 6 11C6.3425 11 6.67686 10.965 7 10.8994V9H9V9.99902C9.37847 9.71465 9.71567 9.3785 10 9H9V7H10.8994C10.965 6.67686 11 6.3425 11 6C11 5.6575 10.965 5.32314 10.8994 5H9V3H10C9.71555 2.62134 9.37866 2.28445 9 2V3H7V1.09961C6.67691 1.03403 6.34244 1 6 1ZM7 9H5V7H7V9ZM5 7H3V5H5V7ZM9 7H7V5H9V7ZM7 5H5V3H7V5Z" fill="#F9FBFC"/>
</svg>
